<svg xmlns="http://www.w3.org/2000/svg" width="41.311" height="29.397" viewBox="0 0 41.311 29.397">
  <g id="Сгруппировать_11178" data-name="Сгруппировать 11178" transform="translate(3639.843 -14756.68)">
    <path id="Контур_19203" data-name="Контур 19203" d="M545.187,839.966h0a3.755,3.755,0,0,1,3.261,1.893L563.8,868.736l-8.6.179-13.273-23.338A3.754,3.754,0,0,1,545.187,839.966Z" transform="translate(-4181.271 13917.163)"/>
    <path id="Контур_19204" data-name="Контур 19204" d="M555.612,839.433h8.634l13.28,23.252a3.777,3.777,0,0,1-3.2,5.649h0a3.778,3.778,0,0,1-3.362-1.909Z" transform="translate(-4183.498 13917.247)"/>
    <path id="Контур_19225" data-name="Контур 19225" d="M613.625,839.433h1.312a4.448,4.448,0,0,1,3.635,7.012h0l-1.312,1.86a4.353,4.353,0,0,1-7.17-.093l-1.167-2.038-3.847-6.74Z" transform="translate(-4217.924 13917.247)"/>
  </g>
</svg>
